<svg xmlns="http://www.w3.org/2000/svg" width="512" height="426" fill="none" viewBox="0 0 512 426"><path fill="#000" d="M268.387.448867C229.376 3.09249 187.935 18.7399 161.499 40.7463c-6.716 5.5731-9.217 8.9312-8.574 11.4319 1 3.9297 3.072 3.2867 16.719-4.93 30.866-18.6483 58.303-29.2228 87.311-33.7241 9.86-1.5719 35.368-1.7148 45.371-.3572 29.937 4.144 53.087 12.3607 78.951 27.8652 4.93 2.9294 9.074 5.4302 9.217 5.6445.215.1429-.214.786-.857 1.429-1.072 1.1432-1.715 1.0003-9.217-1.5719-7.645-2.6436-8.574-2.7865-16.648-2.7865-7.788-.0715-9.145.1429-15.147 2.2149-12.361 4.287-28.294 13.1467-39.511 21.8635-10.646 8.2882-22.364 20.2917-33.867 34.5814l-4.145 5.216-5.501-5.073c-20.935-19.4342-50.872-34.7958-78.309-40.2974-11.646-2.2864-22.149-3.2152-36.868-3.2867-14.647 0-23.006.8574-37.082 3.6439-18.148 3.644-36.1532 9.5743-51.6577 17.0764-9.5028 4.5728-11.9321 7.0735-11.9321 12.5037 0 2.1435.5002 4.93 1.0718 6.359 1.8576 4.4301 2.4292 8.5021 4.2155 28.3651 1.5719 17.22 2.0006 19.863 3.6439 23.436 2.2864 5.001 4.1441 7.073 7.8594 8.788 4.4299 2.072 6.5734 1.643 16.1476-2.644 8.5739-3.929 26.9366-10.36 32.2236-11.36l2.572-.5.429 5.287c.214 2.858.5 10.646.572 17.291l.214 12.075-7.502 1.643c-4.144.857-15.0047 3.43-24.1502 5.573-9.1455 2.215-17.2193 4.001-17.9338 4.001-.8574 0-1.8577-1.286-3.0009-3.715-2.8579-6.288-8.0737-13.575-12.2178-17.434-9.5028-8.645-17.8624-9.574-38.8685-4.215-7.57362 1.929-11.78913 4.215-13.43247 7.359-3.78681 7.359-.50014 17.862 6.359 20.149 1.92913.643 4.21547.428 13.00377-1.286 14.7186-2.93 16.219-3.144 17.5051-2.072.6431.428 3.7868 6.644 7.0021 13.718 10.2887 22.435 19.0055 40.655 34.0099 70.52 8.0023 16.005 14.5756 29.509 14.5756 29.938 0 .428-2.9294 4.644-6.4304 9.288-10.4316 13.647-14.2899 22.078-14.2899 31.366 0 9.86 3.501 17.72 11.4319 25.794 5.9303 5.93 12.4322 9.788 23.5066 13.861 6.788 2.429 9.717 3.93 12.861 6.502 13.361 11.003 35.582 14.861 58.374 10.003l5.145-1.072 11.432 5.287c22.578 10.503 44.37 16.505 71.235 19.72 11.574 1.429 41.94 1.215 53.229-.286 10.932-1.5 22.864-3.715 30.152-5.573 3.001-.714 6.645-1.357 8.074-1.357 1.5 0 6.573-.786 11.36-1.786 50.229-10.146 91.241-36.654 117.249-75.737 14.647-22.078 21.935-43.941 24.078-72.378 1.715-23.15-2.286-43.441-12.075-61.589-7.859-14.433-15.504-24.007-25.793-32.224-9.717-7.788-17.862-11.432-31.152-13.933-4.001-.714-7.145-1.714-7.359-2.215-.858-2.215 12.861-40.583 14.504-40.583 1.358 0 9.074 17.72 14.504 33.367 3.501 10.289 5.145 13.432 8.003 15.862 2.5 2.143 5.215 2.072 6.93-.072 2.858-3.858-1.072-33.081-6.502-47.442-4.001-10.646-7.216-15.362-12.075-17.862-1.5-.7864-2.715-1.5723-2.715-1.8581 0-1.0003 8.145-16.4334 11.075-21.0061 1.715-2.6437 6.287-8.1453 10.217-12.2893 8.717-9.1456 10.86-12.6466 11.361-18.2911.857-9.2884-3.644-15.3616-13.862-18.9341-3.072-1.0717-7.645-3.2152-10.217-4.7156-16.004-9.5742-31.652-13.1467-42.941-9.7886-7.859 2.3578-18.291 10.7174-24.936 19.9344-1.286 1.9291-2.5 3.4296-2.643 3.4296-.072 0-1.787-1.1432-3.787-2.5722-12.218-8.7883-32.51-18.7912-49.8-24.50716-23.65-7.85944-48.872-11.07466-73.808-9.359873M443.939 30.1718c5.358 1.0718 17.147 5.0015 18.291 6.0018.357.3572-.929 2.6436-2.93 5.0729-3.858 5.0014-11.575 16.5762-11.575 17.4336 0 .2858 2.858-2.2149 6.359-5.5016 7.36-6.9306 13.719-10.5745 18.363-10.5745 1.715 0 3.144.2858 3.144.5716 0 1.1432-5.859 9.0026-13.933 18.7197-26.222 31.7236-39.011 55.2307-49.3 90.8837-.786 2.787-1.572 4.144-2.286 4.144-.572 0-5.145-.929-10.146-2.143-4.93-1.144-13.504-2.858-19.006-3.787l-10.003-1.715.143-2.715c.143-1.572 1.858-7.502 3.858-13.218 9.789-28.08 11.075-33.3671 9.217-37.797-1.786-4.287-5.43-3.7868-14.147 2.072-8.002 5.359-13.789 10.646-20.934 19.148-7.931 9.36-14.147 19.077-19.292 29.723-2.357 4.93-4.572 9.146-4.93 9.36-1.214.786-.786-7.002.715-12.861 2.572-10.145 8.217-20.863 16.29-31.08 1.858-2.358 1.715-2.286-1.857.714-4.787 4.073-14.433 15.934-18.934 23.364-5.859 9.789-8.646 17.005-8.717 22.507 0 5.716 1.286 7.931 6.502 10.574 3.358 1.715 3.929 1.787 17.076 1.787 7.431 0 24.221-.286 37.154-.643 17.505-.501 25.793-.429 32.152.214 26.436 2.715 42.298 8.931 56.231 22.149 19.72 18.577 27.007 50.158 19.577 84.596-4.287 19.649-13.075 37.94-26.508 55.159-5.073 6.502-18.577 19.863-25.007 24.722-21.578 16.505-47.514 26.722-73.95 29.294-24.579 2.286-50.872-4.573-70.092-18.362-6.216-4.502-15.576-13.719-20.292-19.935-4.001-5.287-9.931-17.076-11.503-22.864-1.715-6.359-2.072-20.791-.715-28.579 4.144-24.007 19.792-47.443 41.369-61.876 11.718-7.859 20.649-11.36 33.582-13.218 9.645-1.357 15.719-.857 21.577 1.929 6.502 3.073 12.504 10.861 12.79 16.505.071 2.144-.286 2.501-4.787 4.93-2.644 1.501-7.002 4.216-9.646 6.073-6.359 4.502-18.148 16.577-22.864 23.364-14.79 21.435-15.29 43.013-1.143 56.16 7.002 6.573 15.147 9.074 27.079 8.431 29.152-1.644 57.088-22.936 73.093-55.731 15.933-32.652 11.789-59.446-11.146-71.449-11.36-6.002-21.935-7.502-58.374-8.36-32.081-.714-39.297-1.072-49.657-2.572-22.721-3.287-32.51-9.86-36.797-24.936-1.858-6.287-1.215-18.148 1.429-25.364 9.717-26.722 36.153-60.6609 59.66-76.4513 18.006-12.0749 35.868-16.9335 47.871-12.8609 5.716 1.8577 11.647 5.6446 15.148 9.5743l2.572 2.9294 1.5-1.429c.786-.7859 4.073-6.4304 7.288-12.5036 9.146-17.3622 15.79-26.7221 20.649-29.3657 3.215-1.6434 12.218-1.7863 19.792-.2144M156.712 76.5425c30.795 3.1437 53.516 10.503 73.307 23.7215 12.718 8.502 24.579 21.363 27.294 29.508 1.429 4.359 1.143 12.29-.715 20.006-.571 2.572-1.286 8.002-1.5 12.147-.786 13.646 2.858 24.078 11.503 33.438 4.287 4.573 12.218 10.646 15.576 11.789 1 .357 1.215 1 .929 2.429-.214 1.143-.715 4.716-1.143 8.074-.715 5.573-1.715 11.218-2.644 14.576-.214.786-3.787 5.001-8.002 9.36-12.575 13.218-20.506 25.793-25.365 40.368-2.572 7.717-4.715 18.077-4.715 22.936 0 3.072-1.072 4.572-9.575 13.361-16.79 17.291-38.654 31.152-61.803 39.011-12.647 4.359-21.292 6.073-32.581 6.573-11.932.572-20.435-1.071-30.08-5.787-15.505-7.502-20.7922-17.291-15.1477-28.151 3.7153-7.288 22.0067-26.579 29.7947-31.652 4.858-3.072 10.36-2.358 13.218 1.715 2 2.858 1.429 4.787-3.073 9.502-8.288 8.86-8.502 18.863-.571 23.007 5.144 2.644 17.148 1.858 27.294-1.786 15.933-5.645 30.651-15.29 43.655-28.294 21.792-21.935 34.939-50.658 38.226-83.31.928-9.503.428-18.577-1.572-29.151-7.288-38.154-35.725-66.877-75.665-76.308-5.645-1.358-10.36-1.929-18.934-2.215-6.288-.215-11.218-.215-11.004.071.215.215 3.001.929 6.288 1.501 3.215.643 8.645 1.929 12.075 2.929 6.573 1.858 24.721 10.503 28.294 13.361l2.143 1.715-.928 8.145c-.501 4.501-1.001 12.647-1.215 18.148-.214 5.502-.5 11.361-.715 13.004-.357 2.858-.428 3.001-3.715 3.715-9.717 2.072-30.795 5.145-33.938 4.93l-3.716-.214-.5-3.572c-.286-2.001-.786-14.433-1.215-27.723-.428-13.218-.928-24.435-1.143-24.793-.714-1.143-3.572-.857-13.504 1.501-11.789 2.786-31.2231 8.86-41.5118 13.075-9.217 3.787-9.6457 3.572-9.6457-3.43 0-2.429-.7859-12.575-1.7147-22.578-1.6434-17.0045-1.6434-18.2906-.5716-19.3624 3.501-3.4295 29.4371-11.289 45.5848-13.8611 15.862-2.5008 28.365-2.9295 42.941-1.429m55.802 101.2435c.5.5.857 2.215.857 3.859 0 7.645-6.216 46.942-12.075 76.379-4.787 24.007-5.716 27.436-7.931 29.008-1 .715-8.859 3.216-17.505 5.573-8.645 2.358-17.648 4.93-19.934 5.788-2.358.786-4.573 1.429-5.073 1.429-.429 0-2.143-1.929-3.787-4.287-1.857-2.787-2.572-4.287-1.929-4.287 1.501 0 14.219-3.644 14.933-4.359.786-.714-2.286-33.581-3.215-34.581-.5-.429-3.716.071-9.574 1.643-12.361 3.216-12.718 3.358-12.218 5.43.571 2.287 4.144 20.935 4.573 23.793.285 2.286.214 2.358-2.43 2.358-3.143 0-4.072-.5-5.073-2.501-.714-1.357-4.144-12.789-5.93-19.505-.929-3.716-1.143-3.716-11.861-.501-10.002 3.073-11.289 3.644-10.645 5.216.285.643 1.786 5.859 3.358 11.575s3.072 10.789 3.215 11.218c.214.5.071.928-.357.928-1.072 0-11.0036-23.792-25.6507-61.803-5.0729-13.076-8.5025-23.078-8.0738-23.507.643-.643 65.5905-16.005 86.0965-20.363 44.727-9.503 48.586-10.146 50.229-8.503m183.411 53.159c23.792 5.716 25.221 39.225 2.786 67.448-11.432 14.504-27.865 23.435-40.297 21.935-3.93-.5-9.646-3.144-11.932-5.645-2.215-2.358-5.002-8.931-5.574-13.075-1-8.145 3.073-19.291 10.289-27.722 6.716-7.931 13.718-12.361 23.221-14.719 2.787-.714 5.788-1.643 6.645-2.072 2.429-1.357 5.144-5.001 6.002-8.217.786-3 .5-13.861-.5-17.862-.5-2.001-.429-2.001 2.286-1.572 1.572.286 4.716.929 7.074 1.501M230.734 338.69c-.286.572-2.93 3.787-5.716 7.145-12.433 14.647-34.368 29.152-52.016 34.367-12.789 3.859-27.65 3.216-39.654-1.714l-4.644-1.858 12.146-.429c7.86-.357 14.862-1 19.863-2 12.289-2.501 28.008-8.146 38.368-13.862 5.788-3.215 19.506-12.646 26.079-17.933 3.144-2.573 5.788-4.645 5.931-4.716.143 0-.072.429-.357 1m20.148 24.865c8.217 12.36 17.72 22.506 28.223 29.937 6.359 4.573 16.933 10.217 23.435 12.504 3.716 1.286 3.787 1.357 1.786 1.929-3.286 1-21.792.643-32.652-.572-22.078-2.501-48.014-9.288-60.589-15.79l-2.072-1.072 4.144-2.715c8.36-5.502 17.934-13.361 25.579-21.22 4.358-4.43 8.074-8.074 8.288-8.074.214-.072 2.001 2.286 3.858 5.073"/><path fill="#000" d="M448.154 205.58c8.217 8.931 14.004 23.507 16.076 40.226 2.429 20.363-2.929 49.8-12.646 69.378l-1.787 3.572 2.573-2.787c8.645-9.574 17.362-31.937 19.577-50.086 2.215-18.148-.929-36.224-8.146-47.085-3.215-4.858-10.788-12.075-14.861-14.075l-3.001-1.501zM316.401 248.307c-9.431 5.001-16.004 11.074-21.72 20.077-11.003 17.362-10.932 38.797.286 52.73 2.572 3.215 9.931 9.574 10.431 9.074.215-.143-.714-1.572-1.929-3.144-2.786-3.501-6.716-11.932-8.002-17.219-1.644-6.359-1.286-20.649.643-27.365 3.644-12.861 13.575-27.08 24.078-34.582 3.716-2.643 1.644-2.358-3.787.429M191.579 196.721c-12.503 2.572-22.221 4.644-23.435 4.93-1.143.357-1.215 1.571-.786 18.005.286 9.717.714 17.934 1.072 18.291.643.714 19.934-3.287 23.935-4.93 2.072-.858 2.287-1.286 2.715-5.073.286-2.358 1.286-10.146 2.287-17.362 1-7.288 1.571-13.647 1.429-14.147-.429-1.072-.715-1.072-7.217.286M138.135 206.509c-7.359 1.643-13.718 3.358-14.075 3.715-.429.429.428 5.502 2.5 14.147 4.43 18.506 5.859 23.293 7.217 23.293 1.572 0 23.435-5.787 24.007-6.288.428-.5-1.715-28.365-2.715-35.01-.358-2.501-.715-3.001-2.001-2.929-.786 0-7.502 1.429-14.933 3.072M98.3379 217.369c-6.5019 1.787-12.075 3.573-12.4322 3.93-.4287.357.5716 3.858 2.6436 9.003 1.7862 4.644 4.7871 12.289 6.5734 17.005 1.8576 4.715 3.7153 8.931 4.144 9.431.6431.714 3.2863.214 11.7893-2.215 6.002-1.715 11.075-3.287 11.289-3.43.143-.214-1.429-6.93-3.644-14.932-6.216-22.864-6.002-22.078-7.359-22.007-.643 0-6.502 1.501-13.0041 3.215M179.647 246.092c-5.787 1.5-10.86 2.929-11.217 3.358-.358.357-.858 8.503-1.144 18.005-.5 16.577-.428 17.363.858 17.363 2.215 0 18.291-4.216 19.005-4.931.643-.643 6.145-32.009 6.217-35.296 0-1.714-1.358-1.5-13.719 1.501M38.6775 129.915c-2.3578 1.358-3.1438 2.93-3.2152 6.002 0 3.43 1.9291 6.288 4.6442 7.002 2.1435.572 5.7159-1.072 6.7877-3.072 3.0723-5.788-2.9294-13.004-8.2167-9.932M489.452 140.847c-.786 1.215-1 2.644-.786 4.43.286 1.5.786 5.573 1.215 9.074 1 7.931 2.143 10.432 4.858 10.432 4.859 0 7.074-4.716 6.216-13.219-.929-9.86-2.572-12.503-7.645-12.503-2.072 0-2.929.429-3.858 1.786M63.8993 284.818c-2.3579 1.786-2.7866 4.215-1.6434 9.002 1.0003 4.287 2.1435 6.288 6.359 10.861 3.501 3.858 6.7877 5.43 9.217 4.501 3.2152-1.215 3.4296-4.216.7859-11.646-4.4298-12.361-9.5742-16.791-14.7185-12.718"/></svg>