<svg width="512" height="426" viewBox="0 0 512 426" fill="none" xmlns="http://www.w3.org/2000/svg">
<g clip-path="url(#clip0_1957_11252)">
<path d="M268.387 0.448851C229.376 3.09247 187.935 18.7399 161.499 40.7463C154.783 46.3194 152.282 49.6775 152.925 52.1782C153.925 56.1079 155.997 55.4649 169.644 47.2482C200.51 28.5999 227.947 18.0254 256.955 13.5241C266.815 11.9522 292.323 11.8093 302.326 13.1669C332.263 17.3109 355.413 25.5276 381.277 41.0321C386.207 43.9615 390.351 46.4623 390.494 46.6766C390.709 46.8195 390.28 47.4626 389.637 48.1056C388.565 49.2488 387.922 49.1059 380.42 46.5337C372.775 43.8901 371.846 43.7472 363.772 43.7472C355.984 43.6757 354.627 43.8901 348.625 45.9621C336.264 50.2491 320.331 59.1088 309.114 67.8256C298.468 76.1138 286.75 88.1173 275.247 102.407L271.102 107.623L265.601 102.55C244.666 83.1158 214.729 67.7542 187.292 62.2526C175.646 59.9662 165.143 59.0374 150.424 58.9659C135.777 58.9659 127.418 59.8233 113.342 62.6098C95.194 66.2538 77.1888 72.1841 61.6843 79.6862C52.1815 84.259 49.7522 86.7597 49.7522 92.1899C49.7522 94.3334 50.2524 97.1199 50.824 98.5489C52.6816 102.979 53.2532 107.051 55.0395 126.914C56.6114 144.134 57.0401 146.777 58.6834 150.35C60.9698 155.351 62.8275 157.423 66.5428 159.138C70.9727 161.21 73.1162 160.781 82.6904 156.494C91.2643 152.565 109.627 146.134 114.914 145.134L117.486 144.634L117.915 149.921C118.129 152.779 118.415 160.567 118.487 167.212L118.701 179.287L111.199 180.93C107.055 181.787 96.1943 184.36 87.0488 186.503C77.9033 188.718 69.8295 190.504 69.115 190.504C68.2576 190.504 67.2573 189.218 66.1141 186.789C63.2562 180.501 58.0404 173.214 53.8963 169.355C44.3935 160.71 36.0339 159.781 15.0278 165.14C7.45418 167.069 3.23867 169.355 1.59533 172.499C-2.19148 179.858 1.09519 190.361 7.95433 192.648C9.88346 193.291 12.1698 193.076 20.9581 191.362C35.6767 188.432 37.1771 188.218 38.4632 189.29C39.1063 189.718 42.25 195.934 45.4653 203.008C55.754 225.443 64.4708 243.663 79.4752 273.528C87.4775 289.533 94.0508 303.037 94.0508 303.466C94.0508 303.894 91.1214 308.11 87.6204 312.754C77.1888 326.401 73.3305 334.832 73.3305 344.12C73.3305 353.98 76.8315 361.84 84.7624 369.914C90.6927 375.844 97.1946 379.702 108.269 383.775C115.057 386.204 117.986 387.705 121.13 390.277C134.491 401.28 156.712 405.138 179.504 400.28L184.649 399.208L196.081 404.495C218.659 414.998 240.451 421 267.316 424.215C278.89 425.644 309.256 425.43 320.545 423.929C331.477 422.429 343.409 420.214 350.697 418.356C353.698 417.642 357.342 416.999 358.771 416.999C360.271 416.999 365.344 416.213 370.131 415.213C420.36 405.067 461.372 378.559 487.38 339.476C502.027 317.398 509.315 295.535 511.458 267.098C513.173 243.948 509.172 223.657 499.383 205.509C491.524 191.076 483.879 181.502 473.59 173.285C463.873 165.497 455.728 161.853 442.438 159.352C438.437 158.638 435.293 157.638 435.079 157.137C434.221 154.922 447.94 116.554 449.583 116.554C450.941 116.554 458.657 134.274 464.087 149.921C467.588 160.21 469.232 163.353 472.09 165.783C474.59 167.926 477.305 167.855 479.02 165.711C481.878 161.853 477.948 132.63 472.518 118.269C468.517 107.623 465.302 102.907 460.443 100.407C458.943 99.6206 457.728 98.8347 457.728 98.5489C457.728 97.5486 465.873 82.1155 468.803 77.5428C470.518 74.8991 475.09 69.3975 479.02 65.2535C487.737 56.1079 489.88 52.6069 490.381 46.9624C491.238 37.674 486.737 31.6008 476.519 28.0283C473.447 26.9566 468.874 24.8131 466.302 23.3127C450.298 13.7385 434.65 10.166 423.361 13.5241C415.502 15.8819 405.07 24.2415 398.425 33.4585C397.139 35.3876 395.925 36.8881 395.782 36.8881C395.71 36.8881 393.995 35.7449 391.995 34.3159C379.777 25.5276 359.485 15.5247 342.195 9.80872C318.545 1.94928 293.323 -1.26594 268.387 0.448851ZM443.939 30.1718C449.297 31.2436 461.086 35.1733 462.23 36.1736C462.587 36.5308 461.301 38.8172 459.3 41.2465C455.442 46.2479 447.725 57.8227 447.725 58.6801C447.725 58.9659 450.583 56.4652 454.084 53.1785C461.444 46.2479 467.803 42.604 472.447 42.604C474.162 42.604 475.591 42.8898 475.591 43.1756C475.591 44.3188 469.732 52.1782 461.658 61.8953C435.436 93.6189 422.647 117.126 412.358 152.779C411.572 155.566 410.786 156.923 410.072 156.923C409.5 156.923 404.927 155.994 399.926 154.78C394.996 153.636 386.422 151.922 380.92 150.993L370.917 149.278L371.06 146.563C371.203 144.991 372.918 139.061 374.918 133.345C384.707 105.265 385.993 99.9779 384.135 95.548C382.349 91.261 378.705 91.7612 369.988 97.62C361.986 102.979 356.199 108.266 349.054 116.768C341.123 126.128 334.907 135.845 329.762 146.491C327.405 151.421 325.19 155.637 324.832 155.851C323.618 156.637 324.046 148.849 325.547 142.99C328.119 132.845 333.764 122.127 341.837 111.91C343.695 109.552 343.552 109.624 339.98 112.624C335.193 116.697 325.547 128.558 321.046 135.988C315.187 145.777 312.4 152.993 312.329 158.495C312.329 164.211 313.615 166.426 318.831 169.069C322.189 170.784 322.76 170.856 335.907 170.856C343.338 170.856 360.128 170.57 373.061 170.213C390.566 169.712 398.854 169.784 405.213 170.427C431.649 173.142 447.511 179.358 461.444 192.576C481.164 211.153 488.451 242.734 481.021 277.172C476.734 296.821 467.946 315.112 454.513 332.331C449.44 338.833 435.936 352.194 429.506 357.053C407.928 373.558 381.992 383.775 355.556 386.347C330.977 388.633 304.684 381.774 285.464 367.985C279.248 363.483 269.888 354.266 265.172 348.05C261.171 342.763 255.241 330.974 253.669 325.186C251.954 318.827 251.597 304.395 252.954 296.607C257.098 272.6 272.746 249.164 294.323 234.731C306.041 226.872 314.972 223.371 327.905 221.513C337.55 220.156 343.624 220.656 349.482 223.442C355.984 226.515 361.986 234.303 362.272 239.947C362.343 242.091 361.986 242.448 357.485 244.877C354.841 246.378 350.483 249.093 347.839 250.95C341.48 255.452 329.691 267.527 324.975 274.314C310.185 295.749 309.685 317.327 323.832 330.474C330.834 337.047 338.979 339.548 350.911 338.905C380.063 337.261 407.999 315.969 424.004 283.174C439.937 250.522 435.793 223.728 412.858 211.725C401.498 205.723 390.923 204.223 354.484 203.365C322.403 202.651 315.187 202.293 304.827 200.793C282.106 197.506 272.317 190.933 268.03 175.857C266.172 169.57 266.815 157.709 269.459 150.493C279.176 123.771 305.612 89.8321 329.119 74.0417C347.125 61.9668 364.987 57.1082 376.99 61.1808C382.706 63.0385 388.637 66.8254 392.138 70.7551L394.71 73.6845L396.21 72.2555C396.996 71.4696 400.283 65.8251 403.498 59.7519C412.644 42.3897 419.288 33.0298 424.147 30.3862C427.362 28.7428 436.365 28.5999 443.939 30.1718ZM156.712 76.5425C187.507 79.6862 210.228 87.0455 230.019 100.264C242.737 108.766 254.598 121.627 257.313 129.772C258.742 134.131 258.456 142.062 256.598 149.778C256.027 152.35 255.312 157.78 255.098 161.925C254.312 175.571 257.956 186.003 266.601 195.363C270.888 199.936 278.819 206.009 282.177 207.152C283.177 207.509 283.392 208.152 283.106 209.581C282.892 210.724 282.391 214.297 281.963 217.655C281.248 223.228 280.248 228.873 279.319 232.231C279.105 233.017 275.532 237.232 271.317 241.591C258.742 254.809 250.811 267.384 245.952 281.959C243.38 289.676 241.237 300.036 241.237 304.895C241.237 307.967 240.165 309.467 231.662 318.256C214.872 335.547 193.008 349.408 169.859 357.267C157.212 361.626 148.567 363.34 137.278 363.84C125.346 364.412 116.843 362.769 107.198 358.053C91.693 350.551 86.4058 340.762 92.0503 329.902C95.7656 322.614 114.057 303.323 121.845 298.25C126.703 295.178 132.205 295.892 135.063 299.965C137.063 302.823 136.492 304.752 131.99 309.467C123.702 318.327 123.488 328.33 131.419 332.474C136.563 335.118 148.567 334.332 158.713 330.688C174.646 325.043 189.364 315.398 202.368 302.394C224.16 280.459 237.307 251.736 240.594 219.084C241.522 209.581 241.022 200.507 239.022 189.933C231.734 151.779 203.297 123.056 163.357 113.625C157.712 112.267 152.997 111.696 144.423 111.41C138.135 111.195 133.205 111.195 133.419 111.481C133.634 111.696 136.42 112.41 139.707 112.982C142.922 113.625 148.352 114.911 151.782 115.911C158.355 117.769 176.503 126.414 180.076 129.272L182.219 130.987L181.291 139.132C180.79 143.633 180.29 151.779 180.076 157.28C179.862 162.782 179.576 168.641 179.361 170.284C179.004 173.142 178.933 173.285 175.646 173.999C165.929 176.071 144.851 179.144 141.708 178.929L137.992 178.715L137.492 175.143C137.206 173.142 136.706 160.71 136.277 147.42C135.849 134.202 135.349 122.985 135.134 122.627C134.42 121.484 131.562 121.77 121.63 124.128C109.841 126.914 90.4069 132.988 80.1182 137.203C70.9012 140.99 70.4725 140.775 70.4725 133.773C70.4725 131.344 69.6866 121.198 68.7578 111.195C67.1144 94.1905 67.1144 92.9044 68.1862 91.8326C71.6872 88.4031 97.6233 80.5436 113.771 77.9715C129.633 75.4707 142.136 75.042 156.712 76.5425ZM212.514 177.786C213.014 178.286 213.371 180.001 213.371 181.645C213.371 189.29 207.155 228.587 201.296 258.024C196.509 282.031 195.58 285.46 193.365 287.032C192.365 287.747 184.506 290.248 175.86 292.605C167.215 294.963 158.212 297.535 155.926 298.393C153.568 299.179 151.353 299.822 150.853 299.822C150.424 299.822 148.71 297.893 147.066 295.535C145.209 292.748 144.494 291.248 145.137 291.248C146.638 291.248 159.356 287.604 160.07 286.889C160.856 286.175 157.784 253.308 156.855 252.308C156.355 251.879 153.139 252.379 147.281 253.951C134.92 257.167 134.563 257.309 135.063 259.381C135.634 261.668 139.207 280.316 139.636 283.174C139.921 285.46 139.85 285.532 137.206 285.532C134.063 285.532 133.134 285.032 132.133 283.031C131.419 281.674 127.989 270.242 126.203 263.526C125.274 259.81 125.06 259.81 114.342 263.025C104.34 266.098 103.053 266.669 103.697 268.241C103.982 268.884 105.483 274.1 107.055 279.816C108.627 285.532 110.127 290.605 110.27 291.034C110.484 291.534 110.341 291.962 109.913 291.962C108.841 291.962 98.9094 268.17 84.2623 230.159C79.1894 217.083 75.7598 207.081 76.1885 206.652C76.8315 206.009 141.779 190.647 162.285 186.289C207.012 176.786 210.871 176.143 212.514 177.786ZM395.925 230.945C419.717 236.661 421.146 270.17 398.711 298.393C387.279 312.897 370.846 321.828 358.414 320.328C354.484 319.828 348.768 317.184 346.482 314.683C344.267 312.325 341.48 305.752 340.908 301.608C339.908 293.463 343.981 282.317 351.197 273.886C357.913 265.955 364.915 261.525 374.418 259.167C377.205 258.453 380.206 257.524 381.063 257.095C383.492 255.738 386.207 252.094 387.065 248.878C387.851 245.878 387.565 235.017 386.565 231.016C386.065 229.015 386.136 229.015 388.851 229.444C390.423 229.73 393.567 230.373 395.925 230.945ZM230.734 338.69C230.448 339.262 227.804 342.477 225.018 345.835C212.585 360.482 190.65 374.987 173.002 380.202C160.213 384.061 145.352 383.418 133.348 378.488L128.704 376.63L140.85 376.201C148.71 375.844 155.712 375.201 160.713 374.201C173.002 371.7 188.721 366.055 199.081 360.339C204.869 357.124 218.587 347.693 225.16 342.406C228.304 339.833 230.948 337.761 231.091 337.69C231.234 337.69 231.019 338.119 230.734 338.69ZM250.882 363.555C259.099 375.915 268.602 386.061 279.105 393.492C285.464 398.065 296.038 403.709 302.54 405.996C306.256 407.282 306.327 407.353 304.326 407.925C301.04 408.925 282.534 408.568 271.674 407.353C249.596 404.852 223.66 398.065 211.085 391.563L209.013 390.491L213.157 387.776C221.517 382.274 231.091 374.415 238.736 366.556C243.094 362.126 246.81 358.482 247.024 358.482C247.238 358.41 249.025 360.768 250.882 363.555Z" fill="#FFFFF5"/>
<path d="M448.154 205.58C456.371 214.511 462.158 229.087 464.23 245.806C466.659 266.169 461.301 295.606 451.584 315.184L449.797 318.756L452.37 315.969C461.015 306.395 469.732 284.032 471.947 265.883C474.162 247.735 471.018 229.659 463.801 218.798C460.586 213.94 453.013 206.723 448.94 204.723L445.939 203.222L448.154 205.58ZM316.401 248.307C306.97 253.308 300.397 259.381 294.681 268.384C283.678 285.746 283.749 307.181 294.967 321.114C297.539 324.329 304.898 330.688 305.398 330.188C305.613 330.045 304.684 328.616 303.469 327.044C300.683 323.543 296.753 315.112 295.467 309.825C293.823 303.466 294.181 289.176 296.11 282.46C299.754 269.599 309.685 255.38 320.188 247.878C323.904 245.235 321.832 245.52 316.401 248.307ZM191.579 196.721C179.076 199.293 169.358 201.365 168.144 201.651C167.001 202.008 166.929 203.222 167.358 219.656C167.644 229.373 168.072 237.59 168.43 237.947C169.073 238.661 188.364 234.66 192.365 233.017C194.437 232.159 194.652 231.731 195.08 227.944C195.366 225.586 196.366 217.798 197.367 210.582C198.367 203.294 198.938 196.935 198.796 196.435C198.367 195.363 198.081 195.363 191.579 196.721ZM138.135 206.509C130.776 208.152 124.417 209.867 124.06 210.224C123.631 210.653 124.488 215.726 126.56 224.371C130.99 242.877 132.419 247.664 133.777 247.664C135.349 247.664 157.212 241.877 157.784 241.376C158.212 240.876 156.069 213.011 155.069 206.366C154.711 203.865 154.354 203.365 153.068 203.437C152.282 203.437 145.566 204.866 138.135 206.509ZM98.338 217.369C91.8361 219.156 86.263 220.942 85.9058 221.299C85.4771 221.656 86.4774 225.157 88.5494 230.302C90.3356 234.946 93.3365 242.591 95.1228 247.307C96.9804 252.022 98.8381 256.238 99.2668 256.738C99.9099 257.452 102.553 256.952 111.056 254.523C117.058 252.808 122.131 251.236 122.345 251.093C122.488 250.879 120.916 244.163 118.701 236.161C112.485 213.297 112.699 214.083 111.342 214.154C110.699 214.154 104.84 215.655 98.338 217.369ZM179.647 246.092C173.86 247.592 168.787 249.021 168.43 249.45C168.072 249.807 167.572 257.953 167.286 267.455C166.786 284.032 166.858 284.818 168.144 284.818C170.359 284.818 186.435 280.602 187.149 279.887C187.792 279.244 193.294 247.878 193.366 244.591C193.366 242.877 192.008 243.091 179.647 246.092ZM38.6776 129.915C36.3198 131.273 35.5338 132.845 35.4624 135.917C35.4624 139.347 37.3915 142.205 40.1066 142.919C42.2501 143.491 45.8225 141.847 46.8943 139.847C49.9666 134.059 43.9649 126.843 38.6776 129.915ZM489.452 140.847C488.666 142.062 488.452 143.491 488.666 145.277C488.952 146.777 489.452 150.85 489.881 154.351C490.881 162.282 492.024 164.783 494.739 164.783C499.598 164.783 501.813 160.067 500.955 151.564C500.026 141.704 498.383 139.061 493.31 139.061C491.238 139.061 490.381 139.49 489.452 140.847ZM63.8994 284.818C61.5415 286.604 61.1128 289.033 62.256 293.82C63.2563 298.107 64.3995 300.108 68.615 304.681C72.116 308.539 75.4027 310.111 77.832 309.182C81.0472 307.967 81.2616 304.966 78.6179 297.536C74.1881 285.175 69.0437 280.745 63.8994 284.818Z" fill="#FFFFF5"/>
</g>
<defs>
<clipPath id="clip0_1957_11252">
<rect width="512" height="426" fill="white"/>
</clipPath>
</defs>
</svg>
